<svg id="svg" version="1.1" xmlns="http://www.w3.org/2000/svg" xmlns:xlink="http://www.w3.org/1999/xlink" width="400" height="806.6666666666666" viewBox="0, 0, 400,806.6666666666666"><g id="svgg"><path id="path0" d="M0.000 132.242 L 0.000 264.484 1.500 264.292 C 2.325 264.187,4.260 263.803,5.800 263.438 C 7.340 263.074,9.950 262.493,11.600 262.148 C 13.250 261.803,15.770 261.260,17.200 260.941 C 18.630 260.623,20.700 260.212,21.800 260.028 C 22.900 259.845,24.520 259.505,25.400 259.273 C 26.280 259.041,28.440 258.564,30.200 258.211 C 31.960 257.859,34.596 257.307,36.057 256.985 C 37.519 256.663,39.036 256.400,39.429 256.400 C 39.822 256.400,40.696 256.230,41.372 256.022 C 42.047 255.814,44.040 255.357,45.800 255.007 C 47.560 254.658,50.350 254.095,52.000 253.758 C 53.650 253.421,55.810 252.991,56.800 252.802 C 59.450 252.298,64.631 251.228,67.600 250.572 C 69.030 250.256,70.534 249.998,70.943 249.999 C 71.351 250.000,72.881 249.739,74.343 249.421 C 78.552 248.504,83.331 247.565,90.800 246.189 C 97.618 244.933,100.657 244.355,103.400 243.791 C 104.940 243.474,107.910 242.929,110.000 242.580 C 112.090 242.230,114.520 241.783,115.400 241.587 C 116.280 241.391,117.810 241.118,118.800 240.981 C 119.790 240.845,121.230 240.580,122.000 240.394 C 122.770 240.208,125.290 239.762,127.600 239.404 C 129.910 239.046,132.340 238.600,133.000 238.413 C 133.660 238.226,135.100 237.956,136.200 237.813 C 137.300 237.669,139.640 237.288,141.400 236.964 C 143.160 236.641,145.590 236.211,146.800 236.008 C 148.010 235.805,150.530 235.367,152.400 235.035 C 158.095 234.023,162.469 233.273,165.200 232.840 C 166.630 232.613,169.330 232.161,171.200 231.835 C 173.070 231.509,176.400 230.961,178.600 230.618 C 182.745 229.971,187.742 229.164,193.600 228.195 C 195.470 227.886,200.060 227.170,203.800 226.603 C 207.540 226.036,211.954 225.309,213.609 224.986 C 215.264 224.664,217.136 224.400,217.769 224.400 C 218.402 224.400,220.288 224.145,221.960 223.833 C 223.632 223.521,227.160 222.973,229.800 222.616 C 232.440 222.258,235.500 221.801,236.600 221.600 C 237.700 221.399,240.760 220.945,243.400 220.592 C 246.040 220.240,249.231 219.774,250.492 219.557 C 251.752 219.340,254.092 218.996,255.692 218.792 C 258.690 218.409,263.593 217.735,271.600 216.605 C 274.130 216.248,277.769 215.800,279.686 215.610 C 281.603 215.420,283.345 215.157,283.559 215.026 C 283.772 214.894,285.803 214.589,288.073 214.347 C 294.793 213.632,294.168 213.469,294.415 216.000 C 294.533 217.210,294.554 213.700,294.461 208.200 C 294.250 195.682,295.286 179.352,296.345 178.489 C 296.927 178.016,296.910 177.997,296.200 178.323 C 295.760 178.524,294.590 178.795,293.600 178.925 C 289.886 179.412,287.725 180.062,286.722 180.992 C 283.252 184.209,280.011 184.450,276.428 181.758 L 273.978 179.915 270.029 180.198 C 265.801 180.501,264.400 179.976,264.400 178.089 C 264.400 177.002,263.250 175.600,262.357 175.600 C 260.926 175.600,259.200 174.445,259.203 173.490 C 259.206 172.472,262.185 168.800,263.009 168.800 C 263.309 168.800,262.672 167.879,261.592 166.753 C 260.513 165.627,258.948 163.332,258.115 161.653 L 256.600 158.600 256.600 153.200 C 256.600 146.133,257.910 142.190,261.800 137.544 C 263.852 135.094,270.301 130.800,271.929 130.800 C 272.134 130.800,272.531 130.524,272.811 130.186 C 273.651 129.175,272.573 127.602,271.032 127.591 C 267.380 127.565,266.628 123.690,269.529 119.848 C 271.563 117.154,271.577 116.966,269.763 116.671 C 262.543 115.500,263.280 108.628,271.327 102.076 C 272.559 101.073,272.571 100.339,271.362 100.011 C 264.931 98.268,267.453 91.449,275.742 88.169 C 277.957 87.292,278.374 86.677,277.449 85.654 C 275.204 83.173,278.606 81.149,282.600 82.588 C 283.896 83.056,287.502 83.169,301.600 83.189 C 311.170 83.202,319.185 83.344,319.411 83.506 C 319.893 83.851,321.040 86.527,321.375 88.086 C 321.673 89.472,322.157 89.308,325.800 86.582 C 330.685 82.928,329.280 83.157,346.040 83.286 L 360.866 83.400 362.044 84.719 C 362.906 85.684,363.199 86.386,363.135 87.334 C 363.022 89.013,363.341 89.480,364.826 89.806 C 368.655 90.647,370.894 96.800,367.371 96.800 C 366.194 96.800,366.880 97.542,369.450 99.045 C 374.516 102.007,377.087 106.131,376.041 109.620 C 375.781 110.489,375.440 111.204,375.284 111.209 C 375.128 111.214,374.560 111.556,374.021 111.970 L 373.042 112.722 374.077 114.285 C 375.056 115.766,375.967 117.642,377.237 120.800 C 378.710 124.462,377.785 131.501,375.334 135.287 C 374.733 136.215,374.701 136.571,375.115 137.716 C 376.172 140.639,374.654 143.200,371.863 143.200 C 369.285 143.200,369.143 143.420,370.271 145.666 C 371.191 147.499,371.238 147.830,370.813 149.535 C 368.786 157.673,360.471 161.463,349.191 159.392 C 347.793 159.136,347.776 159.150,347.046 161.181 C 345.927 164.291,344.241 165.400,340.632 165.400 L 337.800 165.400 337.527 167.400 C 337.377 168.500,337.124 176.220,336.965 184.555 L 336.677 199.709 339.038 199.458 C 345.701 198.750,354.026 198.417,359.273 198.649 L 365.146 198.909 367.752 201.274 C 369.186 202.575,370.473 204.000,370.613 204.441 C 370.788 204.992,371.013 205.123,371.334 204.860 C 372.077 204.252,375.776 203.781,392.400 202.182 C 395.810 201.854,398.915 201.486,399.300 201.366 C 399.964 201.157,400.000 196.007,400.000 100.573 L 400.000 0.000 200.000 0.000 L 0.000 0.000 0.000 132.242 M25.424 18.187 C 26.406 18.930,27.913 18.936,29.200 18.200 C 31.686 16.779,37.831 17.797,40.159 20.016 C 40.361 20.209,41.319 19.805,42.359 19.088 C 44.944 17.305,48.581 17.075,51.686 18.496 L 53.834 19.480 55.206 18.540 C 58.072 16.576,61.504 18.035,62.586 21.677 C 63.889 26.066,63.181 35.561,61.433 37.138 C 59.373 38.996,49.571 39.947,45.784 38.657 C 43.544 37.893,43.410 37.946,44.049 39.347 C 45.224 41.928,41.972 44.670,38.263 44.224 C 37.129 44.088,35.615 43.987,34.900 44.000 C 32.922 44.035,29.355 44.027,27.900 43.985 C 27.185 43.964,25.504 44.068,24.163 44.217 C 20.431 44.631,18.614 42.957,18.901 39.372 C 19.052 37.502,18.922 36.538,18.363 35.356 C 17.342 33.198,17.261 23.036,18.248 20.956 C 19.658 17.984,23.298 16.580,25.424 18.187 M20.900 21.179 C 19.788 22.980,20.237 33.986,21.475 35.278 C 23.423 37.312,33.535 36.622,33.119 34.484 C 33.006 33.900,32.453 33.798,29.335 33.784 C 24.505 33.762,24.400 33.663,24.400 29.157 C 24.400 27.207,24.619 24.791,24.887 23.789 C 25.664 20.887,22.399 18.751,20.900 21.179 M28.685 21.357 C 26.999 22.919,26.647 28.284,28.123 29.915 C 28.820 30.685,32.287 31.929,34.200 32.096 C 35.352 32.196,35.405 32.285,35.522 34.321 L 35.643 36.442 37.522 36.321 L 39.400 36.200 39.600 34.441 C 39.872 32.045,42.400 30.834,42.400 33.099 C 42.400 35.861,54.709 37.915,58.749 35.827 C 62.386 33.946,61.411 20.400,57.638 20.400 C 55.596 20.400,55.279 21.629,55.937 26.988 C 56.536 31.858,55.641 34.800,53.562 34.800 C 53.169 34.800,52.736 34.980,52.600 35.200 C 52.201 35.845,48.478 35.669,47.386 34.954 C 45.108 33.462,46.289 32.000,49.771 32.000 C 52.374 32.000,53.045 31.360,53.422 28.520 C 54.181 22.798,52.480 20.400,47.665 20.400 C 43.105 20.400,42.400 21.154,42.400 26.029 C 42.400 29.391,42.341 29.648,41.500 29.967 C 40.010 30.531,39.600 29.791,39.600 26.537 C 39.600 21.695,38.181 20.400,32.878 20.400 C 30.099 20.400,29.592 20.516,28.685 21.357 M35.704 24.371 C 36.933 29.111,35.116 31.376,32.251 28.674 C 30.567 27.086,30.373 25.656,31.590 23.810 C 33.057 21.584,35.053 21.856,35.704 24.371 M49.406 23.206 C 51.458 25.474,50.291 30.000,47.653 30.000 L 46.400 30.000 46.400 26.680 C 46.400 22.476,47.546 21.151,49.406 23.206 M21.900 38.832 C 20.932 39.396,21.024 40.631,22.089 41.377 C 23.832 42.598,26.400 41.805,26.400 40.046 C 26.400 38.667,23.518 37.890,21.900 38.832 M29.741 38.706 C 29.307 38.984,29.052 40.016,29.154 41.082 C 29.312 42.736,34.000 41.719,34.000 40.030 C 34.000 38.909,30.920 37.951,29.741 38.706 M36.777 39.443 C 35.754 41.354,38.686 42.796,40.711 41.377 C 41.807 40.610,41.823 40.223,40.800 39.200 C 39.598 37.998,37.482 38.125,36.777 39.443 M49.013 40.285 C 49.423 40.846,49.623 40.879,50.121 40.465 C 50.603 40.065,50.792 40.063,51.035 40.457 C 51.207 40.734,51.134 41.022,50.871 41.110 C 50.612 41.196,50.406 41.567,50.413 41.933 C 50.424 42.529,50.477 42.534,50.913 41.981 C 51.525 41.204,53.933 40.200,54.301 40.568 C 54.453 40.719,54.317 41.004,54.000 41.200 C 53.683 41.396,53.563 41.696,53.733 41.867 C 53.904 42.037,54.169 41.992,54.322 41.766 C 54.726 41.168,57.178 40.244,57.501 40.568 C 57.653 40.719,57.517 41.004,57.200 41.200 C 56.883 41.396,56.763 41.696,56.933 41.867 C 57.104 42.037,57.369 42.002,57.522 41.788 C 58.664 40.194,60.618 40.087,61.388 41.577 C 62.132 43.015,61.818 43.267,59.284 43.265 C 58.162 43.264,57.128 43.508,56.727 43.869 C 56.122 44.414,56.007 44.400,55.594 43.738 C 55.196 43.100,54.653 43.011,51.578 43.080 C 49.623 43.124,47.917 42.989,47.787 42.779 C 47.657 42.569,47.136 42.501,46.630 42.628 C 46.004 42.785,45.631 42.657,45.467 42.230 C 45.044 41.127,45.593 40.383,46.638 40.645 C 47.303 40.812,47.667 40.690,47.839 40.242 C 48.153 39.425,48.390 39.433,49.013 40.285 M277.400 129.410 L 275.400 129.944 277.400 129.678 C 279.913 129.343,281.612 129.347,284.400 129.695 L 286.600 129.969 284.200 129.402 C 281.287 128.714,280.006 128.715,277.400 129.410 M291.800 131.616 C 293.120 132.041,294.560 132.370,295.000 132.348 L 295.800 132.307 295.000 132.120 C 294.560 132.017,293.429 131.677,292.486 131.366 C 291.543 131.055,290.463 130.810,290.086 130.822 C 289.709 130.833,290.480 131.191,291.800 131.616 M277.400 131.600 C 276.391 131.857,276.550 131.914,278.400 131.959 C 282.690 132.063,282.562 132.952,278.200 133.353 C 263.615 134.693,256.047 151.468,264.316 164.127 C 265.296 165.627,266.435 167.065,266.849 167.323 C 267.608 167.797,267.887 168.800,267.260 168.800 C 265.786 168.800,261.955 164.705,260.432 161.500 C 259.505 159.551,258.939 158.889,259.576 160.500 C 260.675 163.280,262.028 165.278,263.953 166.965 C 264.477 167.424,265.119 168.005,265.380 168.255 C 266.331 169.170,270.257 171.156,272.400 171.807 C 275.988 172.898,275.897 172.849,275.000 173.187 C 273.635 173.701,277.295 174.112,280.434 173.797 C 282.874 173.552,283.164 173.439,282.723 172.907 C 282.282 172.376,282.427 172.319,283.860 172.455 C 284.975 172.561,285.447 172.466,285.328 172.157 C 285.232 171.908,285.929 171.235,286.877 170.663 C 289.885 168.847,293.934 164.552,294.574 162.500 C 294.728 162.005,295.022 161.600,295.227 161.600 C 295.432 161.600,295.600 161.343,295.600 161.029 C 295.600 160.714,295.842 160.215,296.139 159.919 C 296.435 159.622,296.803 158.709,296.957 157.890 C 297.110 157.070,297.408 156.400,297.618 156.400 C 298.232 156.400,298.057 158.655,297.400 159.200 C 297.070 159.474,296.800 160.135,296.800 160.669 C 296.800 161.732,295.749 164.024,295.044 164.499 C 294.800 164.664,295.197 164.684,295.927 164.544 C 299.258 163.904,304.400 166.876,304.400 169.441 L 304.400 170.454 305.500 169.680 C 306.105 169.254,307.050 168.765,307.600 168.595 C 311.982 167.234,319.358 160.615,321.315 156.286 C 323.005 152.551,321.394 148.400,318.255 148.400 C 317.706 148.400,316.987 148.130,316.657 147.800 C 316.327 147.470,315.832 147.200,315.557 147.200 C 315.282 147.200,313.754 145.850,312.162 144.200 C 310.570 142.550,309.162 141.200,309.034 141.200 C 308.569 141.200,308.814 142.523,309.359 142.956 C 312.319 145.309,313.708 152.899,311.893 156.800 C 311.535 157.570,311.069 158.830,310.857 159.600 L 310.472 161.000 310.404 159.800 C 310.366 159.140,310.258 158.060,310.163 157.400 C 310.069 156.740,309.844 153.680,309.663 150.600 C 309.345 145.159,309.220 144.424,308.282 142.474 C 307.930 141.742,307.959 141.473,308.417 141.189 C 309.256 140.671,307.296 137.000,306.181 137.000 C 305.683 137.000,305.420 137.253,305.456 137.700 C 305.486 138.085,305.351 138.400,305.156 138.400 C 304.960 138.400,304.799 138.175,304.799 137.900 C 304.796 137.222,301.783 136.030,298.934 135.580 C 297.650 135.378,295.725 135.031,294.656 134.810 C 291.898 134.239,291.786 134.543,293.808 137.118 C 294.793 138.373,295.600 139.704,295.600 140.076 C 295.600 140.448,295.780 140.864,296.000 141.000 C 296.220 141.136,296.395 141.642,296.388 142.124 C 296.376 142.981,296.366 142.983,295.922 142.200 C 295.673 141.760,295.353 141.310,295.213 141.200 C 295.073 141.090,294.575 140.370,294.107 139.599 C 290.423 133.528,283.274 130.105,277.400 131.600 M296.400 132.800 C 296.730 133.013,297.270 133.188,297.600 133.188 C 298.133 133.188,298.133 133.145,297.600 132.800 C 297.270 132.587,296.730 132.412,296.400 132.412 C 295.867 132.412,295.867 132.455,296.400 132.800 M268.863 134.245 C 266.244 135.696,263.911 137.745,262.447 139.882 C 261.724 140.937,261.519 141.350,261.991 140.800 C 264.698 137.648,267.103 135.564,269.308 134.462 C 270.679 133.777,271.530 133.231,271.200 133.250 C 270.870 133.268,269.818 133.716,268.863 134.245 M260.044 144.100 C 259.410 145.793,259.146 146.800,259.335 146.800 C 259.440 146.800,259.801 145.990,260.138 145.000 C 260.754 143.191,260.673 142.417,260.044 144.100 M333.874 146.850 C 332.521 147.751,331.066 148.400,330.397 148.400 C 329.765 148.400,329.136 148.580,329.000 148.800 C 328.864 149.020,327.593 149.200,326.176 149.200 C 323.867 149.200,323.600 149.283,323.600 150.000 C 323.600 151.002,325.021 151.081,326.347 150.152 C 327.094 149.629,327.465 149.592,328.279 149.963 L 329.286 150.422 328.308 151.689 C 327.325 152.965,326.787 153.361,325.500 153.759 C 325.080 153.888,324.800 154.371,324.800 154.964 C 324.800 155.508,324.645 156.049,324.454 156.166 C 324.264 156.284,324.018 157.657,323.906 159.219 C 323.794 160.780,323.500 162.260,323.251 162.509 C 323.003 162.757,322.800 163.631,322.800 164.451 C 322.800 165.293,322.518 166.225,322.152 166.590 C 321.152 167.591,321.683 167.737,326.099 167.670 C 328.355 167.636,330.740 167.763,331.400 167.952 L 332.600 168.296 331.400 168.596 C 330.740 168.760,329.750 169.181,329.200 169.531 C 328.522 169.962,326.943 170.220,324.300 170.330 C 320.564 170.486,320.400 170.531,320.400 171.398 C 320.400 171.895,320.130 172.526,319.800 172.800 C 319.470 173.074,319.194 173.591,319.187 173.949 C 319.180 174.307,318.910 174.949,318.587 175.376 C 318.264 175.804,318.000 176.558,318.000 177.053 C 318.000 177.548,317.820 178.064,317.600 178.200 C 317.380 178.336,317.199 178.752,317.198 179.124 C 317.196 179.496,316.931 180.306,316.609 180.924 C 315.172 183.679,316.544 185.306,318.757 183.470 C 319.866 182.549,332.204 181.589,331.918 182.446 C 331.826 182.723,331.221 183.120,330.575 183.327 C 329.929 183.535,329.116 183.951,328.769 184.252 C 328.421 184.553,327.566 184.800,326.869 184.800 C 326.171 184.800,325.600 184.966,325.600 185.168 C 325.600 185.775,323.331 186.088,319.019 186.077 L 314.946 186.066 314.184 187.533 C 310.485 194.656,306.520 194.895,303.547 188.173 C 303.131 187.233,302.568 186.373,302.295 186.262 C 301.916 186.108,301.911 185.982,302.275 185.722 C 302.536 185.536,302.876 183.947,303.029 182.192 C 303.183 180.436,303.554 178.514,303.854 177.920 C 304.725 176.197,304.537 174.559,303.342 173.451 C 301.284 171.543,301.034 172.091,300.443 179.800 C 299.342 194.143,299.060 200.944,298.939 216.000 C 298.868 224.910,298.807 232.335,298.805 232.500 C 298.782 233.916,298.006 232.306,297.887 230.598 L 297.734 228.396 297.767 230.698 L 297.800 233.000 303.800 233.131 C 307.100 233.203,312.719 233.139,316.287 232.989 L 322.774 232.716 325.066 230.658 C 326.326 229.526,327.595 228.330,327.885 228.000 C 328.176 227.670,328.951 226.809,329.607 226.086 C 330.263 225.364,330.800 224.531,330.800 224.235 C 330.800 223.940,331.075 223.470,331.411 223.191 C 332.301 222.452,334.400 219.249,334.400 218.629 C 334.400 218.337,334.670 217.874,335.000 217.600 C 335.330 217.326,335.603 216.719,335.606 216.251 C 335.616 214.905,336.288 214.042,336.630 214.935 C 336.908 215.658,334.971 221.982,333.548 225.000 C 332.806 226.573,327.574 232.072,326.400 232.512 C 326.070 232.636,331.065 232.751,337.500 232.768 C 350.019 232.802,349.953 232.812,350.935 230.769 C 351.086 230.456,351.555 229.660,351.978 229.000 C 354.913 224.423,356.008 217.568,354.811 211.258 C 354.393 209.056,354.638 207.501,355.250 208.466 C 355.436 208.760,355.591 209.459,355.594 210.020 C 355.597 210.581,355.804 211.244,356.054 211.494 C 357.913 213.353,356.065 226.779,353.357 231.086 C 352.322 232.732,352.583 232.865,356.500 232.686 C 363.411 232.371,367.867 230.327,370.525 226.251 C 372.686 222.938,373.814 215.146,372.646 211.600 C 372.064 209.832,372.053 209.823,372.027 211.124 C 372.001 212.397,371.200 212.625,371.200 211.359 C 371.200 208.215,362.723 202.000,358.434 202.000 C 355.940 202.000,356.857 201.234,359.488 201.119 C 361.827 201.016,361.402 200.928,356.400 200.474 C 352.085 200.083,349.934 200.058,348.000 200.376 C 346.570 200.611,344.018 200.982,342.328 201.201 C 340.638 201.420,338.782 201.779,338.202 201.999 C 335.338 203.088,333.200 202.245,333.200 200.026 C 333.200 199.030,332.958 199.030,331.400 200.025 C 330.740 200.446,329.930 200.920,329.600 201.077 C 329.270 201.234,328.254 201.866,327.342 202.481 C 326.430 203.096,325.440 203.606,325.142 203.613 C 324.844 203.620,324.251 203.890,323.824 204.213 C 323.396 204.536,322.586 204.806,322.024 204.813 C 321.461 204.820,320.651 205.090,320.224 205.413 C 319.796 205.736,318.806 206.006,318.024 206.014 C 317.241 206.022,314.980 206.308,313.000 206.650 C 311.020 206.993,308.050 207.429,306.400 207.621 C 304.750 207.812,302.633 208.085,301.696 208.227 C 300.292 208.439,300.032 208.381,300.219 207.894 C 300.460 207.268,302.810 206.812,305.956 206.782 C 306.970 206.773,308.520 206.505,309.400 206.188 C 310.280 205.871,311.360 205.608,311.800 205.604 C 312.240 205.599,313.083 205.343,313.673 205.035 C 314.263 204.727,315.286 204.357,315.945 204.212 C 316.605 204.067,317.359 203.690,317.621 203.374 C 317.883 203.058,318.425 202.800,318.825 202.800 C 319.225 202.800,319.654 202.636,319.778 202.435 C 319.903 202.234,320.723 201.948,321.602 201.800 C 322.481 201.651,323.200 201.366,323.200 201.165 C 323.200 200.964,323.616 200.800,324.124 200.800 C 324.631 200.800,325.396 200.536,325.824 200.213 C 326.251 199.890,327.097 199.620,327.705 199.613 C 328.313 199.606,329.123 199.440,329.505 199.244 C 329.887 199.049,330.864 198.564,331.676 198.166 C 333.515 197.266,333.591 196.967,333.977 189.200 C 334.314 182.408,334.268 182.000,333.157 182.000 C 332.741 182.000,332.400 181.820,332.400 181.600 C 332.400 181.380,332.766 181.200,333.213 181.200 C 334.314 181.200,334.341 181.054,334.544 174.125 C 334.642 170.784,334.808 167.904,334.914 167.725 C 335.019 167.546,335.227 165.060,335.376 162.200 C 335.525 159.340,335.827 156.010,336.047 154.800 C 336.268 153.590,336.393 150.957,336.324 148.950 L 336.200 145.299 333.874 146.850 M258.227 152.100 C 258.100 153.255,258.158 154.830,258.357 155.600 C 258.656 156.760,258.725 156.400,258.759 153.500 C 258.805 149.564,258.573 148.953,258.227 152.100 M318.891 163.127 C 317.345 164.838,314.989 166.972,313.655 167.867 C 312.321 168.763,311.343 169.610,311.481 169.748 C 311.875 170.142,314.326 170.043,314.585 169.624 C 314.724 169.400,314.206 169.338,313.309 169.471 L 311.800 169.694 314.200 167.914 C 315.520 166.935,317.532 165.114,318.671 163.867 C 319.809 162.620,320.869 161.600,321.026 161.600 C 321.682 161.600,320.791 165.758,319.942 166.662 C 319.457 167.178,319.227 167.597,319.430 167.593 C 320.339 167.576,321.600 165.630,321.600 164.244 C 321.600 163.450,321.780 162.800,322.000 162.800 C 322.491 162.800,322.536 160.531,322.050 160.231 C 321.858 160.112,320.436 161.415,318.891 163.127 M309.654 163.061 C 309.277 163.709,309.223 163.654,309.212 162.620 C 309.203 161.759,309.320 161.560,309.641 161.881 C 309.958 162.198,309.961 162.532,309.654 163.061 M308.635 165.098 C 308.198 165.535,307.899 164.840,308.212 164.117 C 308.510 163.432,308.532 163.433,308.697 164.131 C 308.793 164.534,308.765 164.969,308.635 165.098 M317.200 168.200 C 316.650 168.514,316.380 168.772,316.600 168.772 C 316.820 168.772,317.450 168.514,318.000 168.200 C 318.550 167.886,318.820 167.628,318.600 167.628 C 318.380 167.628,317.750 167.886,317.200 168.200 M297.744 184.000 C 297.744 186.090,297.812 186.945,297.894 185.900 C 297.976 184.855,297.976 183.145,297.894 182.100 C 297.812 181.055,297.744 181.910,297.744 184.000 M297.060 193.261 C 296.738 197.801,296.802 221.263,297.147 224.800 C 297.286 226.230,297.400 218.895,297.400 208.500 C 297.400 198.105,297.382 189.600,297.360 189.600 C 297.338 189.600,297.203 191.248,297.060 193.261 M365.200 202.546 C 365.200 202.648,365.965 203.293,366.900 203.980 C 367.835 204.667,369.185 205.968,369.900 206.871 C 370.615 207.774,371.200 208.348,371.200 208.147 C 371.200 207.456,368.735 204.794,366.969 203.579 C 365.996 202.909,365.200 202.445,365.200 202.546 M372.195 207.192 C 372.748 208.068,373.206 209.013,373.214 209.292 C 373.229 209.837,374.362 211.989,374.386 211.519 C 374.428 210.673,371.958 205.600,371.503 205.600 C 371.331 205.600,371.642 206.316,372.195 207.192 M337.600 211.800 C 337.600 212.790,337.420 213.600,337.200 213.600 C 336.755 213.600,336.683 212.279,337.052 210.900 C 337.421 209.524,337.600 209.818,337.600 211.800 M374.678 214.000 C 375.055 216.329,375.063 219.680,374.697 222.200 L 374.408 224.200 374.987 222.000 C 375.724 219.199,375.721 216.730,374.976 214.200 L 374.386 212.200 374.678 214.000 M295.076 223.400 C 295.197 225.380,295.365 227.075,295.448 227.167 C 295.727 227.473,295.545 223.424,295.198 221.600 C 294.952 220.303,294.918 220.807,295.076 223.400 M373.232 227.235 C 373.133 229.224,368.407 233.866,365.156 235.167 C 364.630 235.377,364.434 235.561,364.720 235.575 C 365.237 235.600,367.329 234.626,368.162 233.971 C 371.420 231.414,373.905 228.181,373.459 227.082 C 373.340 226.790,373.251 226.850,373.232 227.235 M295.790 231.331 C 296.069 235.440,296.342 235.615,302.309 235.513 L 307.400 235.426 302.308 235.301 C 296.479 235.158,296.638 235.259,296.001 231.299 L 295.632 229.000 295.790 231.331 M311.233 235.753 C 311.325 235.837,315.990 235.996,321.600 236.107 C 327.982 236.232,330.078 236.195,327.200 236.006 C 322.237 235.681,310.961 235.503,311.233 235.753 M357.000 236.000 L 354.200 236.259 357.000 236.290 C 358.540 236.307,360.790 236.184,362.000 236.017 L 364.200 235.713 362.000 235.727 C 360.790 235.735,358.540 235.858,357.000 236.000 M338.723 236.699 C 341.431 236.768,345.751 236.768,348.323 236.699 C 350.895 236.629,348.680 236.572,343.400 236.573 C 338.120 236.573,336.015 236.630,338.723 236.699 " stroke="none" fill="#fbbf42" fill-rule="evenodd"></path><path id="path1" d="M285.054 107.402 C 284.424 107.731,283.742 108.000,283.538 108.000 C 282.427 108.000,277.746 112.238,276.690 114.200 C 274.889 117.544,274.692 118.396,274.704 122.786 C 274.721 128.927,274.782 128.992,280.560 129.028 C 284.881 129.055,289.011 129.683,289.780 130.431 C 289.989 130.634,290.529 130.799,290.980 130.798 C 291.431 130.797,292.610 131.053,293.600 131.366 C 300.677 133.608,303.200 133.633,303.200 131.461 C 303.200 131.309,303.621 130.513,304.134 129.692 C 307.239 124.735,305.797 115.907,301.108 111.162 C 299.463 109.498,298.640 108.985,295.140 107.443 C 293.186 106.583,286.676 106.557,285.054 107.402 M322.600 113.200 C 322.160 113.389,321.333 113.556,320.763 113.572 C 320.193 113.587,318.933 114.048,317.963 114.595 C 316.993 115.142,315.930 115.712,315.600 115.862 C 314.448 116.386,311.792 119.491,310.832 121.438 C 310.300 122.517,309.682 123.521,309.458 123.669 C 308.698 124.173,308.913 134.055,309.709 135.191 C 310.089 135.734,310.405 136.453,310.411 136.789 C 310.442 138.503,315.052 142.765,318.800 144.545 C 321.206 145.688,329.498 145.778,330.717 144.675 C 331.127 144.304,331.702 144.000,331.995 144.000 C 333.560 144.000,339.600 137.947,339.600 136.378 C 339.600 136.095,339.907 135.523,340.283 135.108 C 341.910 133.311,340.950 122.089,339.100 121.267 C 338.935 121.193,338.800 120.920,338.800 120.660 C 338.800 116.944,326.774 111.406,322.600 113.200 M301.700 122.035 C 302.593 123.604,302.597 126.118,301.709 127.514 C 299.685 130.696,294.400 129.383,294.400 125.699 C 294.400 121.489,299.837 118.761,301.700 122.035 M325.780 126.538 C 328.726 130.401,324.888 136.567,321.094 134.065 C 318.036 132.049,318.028 128.642,321.077 126.148 C 322.778 124.756,324.531 124.901,325.780 126.538 M273.600 133.000 C 273.050 133.314,272.333 133.578,272.006 133.586 C 268.583 133.667,260.410 141.800,260.398 145.137 C 260.396 145.502,260.111 146.340,259.764 147.000 C 256.807 152.627,260.598 164.776,266.357 168.123 C 267.752 168.934,268.217 168.178,266.849 167.323 C 262.226 164.436,259.517 152.745,261.959 146.218 C 264.788 138.657,270.766 133.999,278.513 133.320 C 280.005 133.189,281.321 132.928,281.437 132.741 C 281.808 132.140,274.694 132.375,273.600 133.000 M318.400 164.538 C 317.190 165.847,315.570 167.296,314.800 167.759 C 312.612 169.073,314.857 169.140,317.449 167.838 C 319.931 166.591,320.659 165.794,321.002 163.946 C 321.405 161.775,320.833 161.905,318.400 164.538 M299.783 175.219 C 297.680 177.543,296.439 231.388,298.460 232.637 C 298.647 232.753,298.802 232.702,298.805 232.524 C 298.807 232.346,298.868 224.910,298.939 216.000 C 299.061 200.780,299.399 192.750,300.451 180.080 C 300.932 174.289,300.891 173.994,299.783 175.219 M357.000 201.600 C 357.136 201.820,357.781 202.000,358.434 202.000 C 362.723 202.000,371.200 208.215,371.200 211.359 C 371.200 211.686,371.380 212.064,371.600 212.200 C 372.269 212.613,372.048 211.064,371.199 209.385 C 368.965 204.964,363.270 201.200,358.816 201.200 C 357.542 201.200,356.847 201.353,357.000 201.600 M399.159 201.374 C 399.064 201.470,396.109 201.825,392.593 202.163 C 372.509 204.094,369.492 204.570,371.775 205.446 C 372.119 205.578,372.400 205.877,372.400 206.111 C 372.400 206.345,372.633 206.821,372.918 207.169 C 373.397 207.752,373.964 209.312,375.184 213.400 C 376.299 217.141,374.812 227.348,372.867 229.293 C 372.610 229.550,372.400 229.980,372.400 230.249 C 372.400 232.125,366.042 235.861,361.946 236.393 C 358.110 236.891,328.087 236.910,319.144 236.419 C 315.325 236.210,308.659 235.921,304.331 235.777 L 296.462 235.515 296.033 234.457 C 295.520 233.190,294.787 226.114,294.447 219.132 C 294.136 212.753,295.205 213.264,285.400 214.807 C 283.860 215.049,281.160 215.406,279.400 215.600 C 277.640 215.794,274.130 216.246,271.600 216.604 C 263.849 217.700,258.735 218.403,255.692 218.792 C 254.092 218.996,251.752 219.340,250.492 219.557 C 249.231 219.774,246.040 220.240,243.400 220.592 C 240.760 220.945,237.700 221.399,236.600 221.600 C 235.500 221.801,232.440 222.258,229.800 222.616 C 227.160 222.973,223.632 223.521,221.960 223.833 C 220.288 224.145,218.402 224.400,217.769 224.400 C 217.136 224.400,215.264 224.664,213.609 224.986 C 211.954 225.309,207.540 226.036,203.800 226.603 C 200.060 227.170,195.470 227.886,193.600 228.195 C 187.742 229.164,182.745 229.971,178.600 230.618 C 176.400 230.961,173.070 231.509,171.200 231.835 C 169.330 232.161,166.630 232.613,165.200 232.840 C 161.945 233.356,157.268 234.155,152.600 234.993 C 150.620 235.348,148.010 235.805,146.800 236.008 C 145.590 236.211,143.160 236.641,141.400 236.964 C 139.640 237.288,137.300 237.669,136.200 237.813 C 135.100 237.956,133.660 238.226,133.000 238.413 C 132.340 238.600,129.910 239.046,127.600 239.404 C 125.290 239.762,122.770 240.208,122.000 240.394 C 121.230 240.580,119.790 240.845,118.800 240.981 C 117.810 241.118,116.280 241.391,115.400 241.587 C 114.520 241.783,112.090 242.230,110.000 242.580 C 107.910 242.929,104.940 243.474,103.400 243.791 C 100.657 244.355,97.618 244.933,90.800 246.189 C 83.331 247.565,78.552 248.504,74.343 249.421 C 72.881 249.739,71.351 250.000,70.943 249.999 C 70.534 249.998,69.030 250.256,67.600 250.572 C 64.631 251.228,59.450 252.298,56.800 252.802 C 55.810 252.991,53.650 253.421,52.000 253.758 C 50.350 254.095,47.560 254.658,45.800 255.007 C 44.040 255.357,42.047 255.814,41.372 256.022 C 40.696 256.230,39.822 256.400,39.429 256.400 C 39.036 256.400,37.519 256.663,36.057 256.985 C 34.596 257.307,31.960 257.859,30.200 258.211 C 28.440 258.564,26.280 259.041,25.400 259.273 C 24.520 259.505,22.900 259.845,21.800 260.028 C 20.700 260.212,18.630 260.623,17.200 260.941 C 15.770 261.260,13.250 261.803,11.600 262.148 C 9.950 262.493,7.340 263.074,5.800 263.438 C 4.260 263.803,2.325 264.187,1.500 264.292 L 0.000 264.484 0.000 535.442 L 0.000 806.400 200.000 806.400 L 400.000 806.400 400.000 503.800 C 400.000 337.370,399.850 201.200,399.667 201.200 C 399.483 201.200,399.255 201.278,399.159 201.374 " stroke="none" fill="#fbfbfb" fill-rule="evenodd"></path><path id="path2" d="M20.484 18.626 C 17.990 20.373,16.839 30.865,18.682 35.051 C 19.101 36.004,19.371 37.670,19.382 39.380 C 19.405 42.983,20.802 44.264,24.200 43.796 C 25.300 43.645,26.875 43.536,27.700 43.554 C 28.525 43.572,30.190 43.589,31.400 43.591 C 35.964 43.598,36.658 43.607,38.889 43.689 C 42.155 43.808,43.330 42.878,43.600 39.960 C 43.710 38.772,43.940 37.821,44.111 37.848 C 44.282 37.874,45.495 38.123,46.807 38.401 C 52.369 39.582,60.042 38.391,61.609 36.105 C 62.996 34.081,63.137 22.688,61.802 20.481 C 60.167 17.776,55.650 17.253,54.200 19.600 C 54.081 19.792,52.993 19.510,51.781 18.975 C 48.186 17.385,44.412 17.749,41.614 19.955 C 40.668 20.701,40.588 20.704,39.614 20.030 C 36.461 17.844,32.509 17.360,28.739 18.699 C 26.866 19.364,26.712 19.364,25.553 18.699 C 24.041 17.831,21.668 17.797,20.484 18.626 M24.746 20.247 C 25.570 20.824,25.646 21.119,25.441 22.947 C 24.296 33.164,24.278 33.120,29.622 33.284 C 33.181 33.393,33.407 33.452,33.526 34.290 C 33.900 36.915,23.630 38.091,21.236 35.698 C 19.625 34.086,19.093 23.781,20.481 21.077 C 21.206 19.665,23.326 19.253,24.746 20.247 M37.735 20.760 C 39.516 21.861,40.400 24.061,40.400 27.396 C 40.400 29.524,40.505 29.935,41.000 29.745 C 41.450 29.572,41.601 28.849,41.602 26.857 C 41.607 21.281,42.728 20.000,47.600 20.000 C 53.115 20.000,55.356 23.217,53.955 29.123 C 53.338 31.724,52.439 32.400,49.598 32.400 C 47.853 32.400,47.226 32.556,47.041 33.036 C 46.107 35.472,52.607 35.734,54.846 33.351 C 55.684 32.459,55.707 32.217,55.438 27.025 C 55.098 20.479,55.261 20.000,57.834 20.000 C 60.518 20.000,61.180 21.657,61.190 28.400 C 61.201 36.320,60.678 36.800,52.023 36.800 C 45.177 36.800,42.884 35.958,41.861 33.070 C 41.329 31.569,40.208 32.482,40.077 34.522 C 39.928 36.851,38.792 37.557,36.359 36.832 L 34.917 36.403 35.109 34.401 L 35.302 32.400 33.659 32.400 C 31.547 32.400,28.847 31.371,27.700 30.130 C 25.322 27.555,27.136 20.412,30.308 19.863 C 32.671 19.453,36.338 19.896,37.735 20.760 M32.410 23.590 C 30.645 25.355,31.281 28.239,33.652 29.222 C 35.238 29.878,35.600 29.440,35.600 26.865 C 35.600 23.322,34.158 21.842,32.410 23.590 M47.285 23.275 C 46.741 23.819,46.600 29.429,47.122 29.752 C 47.874 30.216,49.414 28.925,49.758 27.542 C 50.338 25.212,48.507 22.053,47.285 23.275 M41.290 38.681 C 42.951 40.184,41.628 42.400,39.070 42.400 C 36.343 42.400,35.197 40.525,36.653 38.446 C 37.408 37.368,39.983 37.499,41.290 38.681 M26.026 38.414 C 27.987 39.463,26.448 42.400,23.938 42.400 C 21.308 42.400,19.774 39.556,21.732 38.310 C 22.422 37.871,25.134 37.937,26.026 38.414 M33.669 38.662 C 35.479 40.301,33.950 42.527,31.154 42.325 C 28.983 42.168,27.930 40.750,28.710 39.037 C 29.291 37.763,32.414 37.526,33.669 38.662 M48.000 41.800 C 48.000 42.889,48.034 42.915,48.967 42.557 C 50.068 42.135,49.461 40.800,48.167 40.800 C 48.075 40.800,48.000 41.250,48.000 41.800 M60.400 41.553 C 60.400 41.748,59.998 42.012,59.507 42.140 C 58.875 42.306,58.738 42.498,59.040 42.800 C 59.647 43.407,60.800 42.855,60.800 41.957 C 60.800 41.541,60.710 41.200,60.600 41.200 C 60.490 41.200,60.400 41.359,60.400 41.553 M51.698 42.100 C 51.789 42.375,52.283 42.661,52.796 42.736 C 53.650 42.861,53.675 42.818,53.093 42.236 C 52.336 41.479,51.465 41.394,51.698 42.100 M55.600 42.167 C 55.600 43.535,56.059 44.072,56.599 43.334 C 57.005 42.778,57.002 42.544,56.580 42.123 C 55.904 41.447,55.600 41.461,55.600 42.167 M298.000 92.750 C 293.815 94.334,290.871 96.778,291.511 98.138 C 293.559 102.499,293.638 104.176,291.781 103.874 C 285.006 102.775,277.063 107.562,273.654 114.800 C 271.339 119.715,271.873 130.808,274.400 130.292 C 275.100 130.149,275.083 129.794,274.233 126.680 C 269.926 110.901,289.078 99.103,301.103 110.129 C 307.710 116.187,308.538 126.996,302.880 133.324 C 302.318 133.953,302.309 134.098,302.816 134.424 C 303.573 134.910,304.600 134.725,304.600 134.102 C 304.600 133.834,305.005 133.332,305.500 132.985 C 306.393 132.360,306.400 132.369,306.400 134.128 C 306.400 135.209,306.632 136.095,306.994 136.395 C 307.320 136.666,307.995 137.709,308.494 138.713 C 309.844 141.433,313.379 144.782,316.606 146.400 C 320.387 148.294,328.854 148.482,332.000 146.741 C 337.512 143.691,338.533 142.981,339.484 141.544 C 340.650 139.783,341.192 139.682,343.506 140.800 C 345.762 141.890,346.146 141.821,346.926 140.186 C 347.858 138.232,347.803 138.073,346.100 137.765 C 344.707 137.512,342.400 136.561,342.400 136.239 C 342.400 136.161,342.652 135.491,342.960 134.749 C 345.345 129.007,343.417 120.955,338.377 115.609 C 335.493 112.549,335.473 113.092,338.585 109.983 C 342.313 106.259,341.781 104.197,336.000 99.957 C 332.364 97.290,324.400 95.442,324.400 97.265 C 324.400 97.474,323.500 99.009,322.400 100.677 C 320.186 104.036,319.956 105.023,321.300 105.396 C 324.553 106.300,330.550 109.070,331.489 110.102 C 332.480 111.191,331.803 111.387,329.559 110.662 C 323.395 108.672,314.682 111.848,310.199 117.720 C 308.499 119.946,308.157 120.028,307.780 118.300 C 306.666 113.190,302.958 108.320,298.422 106.010 C 296.725 105.145,296.679 105.077,297.422 104.512 C 299.447 102.973,305.421 101.200,308.583 101.200 C 310.357 101.200,310.429 100.803,309.410 96.651 C 308.711 93.807,308.346 92.996,307.569 92.565 C 306.159 91.784,300.252 91.898,298.000 92.750 M329.227 112.633 C 338.350 115.291,343.958 124.211,341.763 132.574 C 336.929 151.000,313.314 151.321,308.352 133.027 C 307.329 129.254,307.693 126.236,309.737 121.549 C 312.651 114.867,322.084 110.552,329.227 112.633 M297.668 121.539 C 297.284 121.790,297.465 121.953,298.316 122.123 C 299.773 122.415,300.197 123.668,299.238 124.852 C 298.360 125.937,296.803 125.568,296.794 124.273 C 296.782 122.591,296.140 122.224,295.653 123.621 C 294.302 127.495,298.050 130.818,300.596 128.004 C 303.088 125.251,300.553 119.654,297.668 121.539 M323.188 126.778 C 323.417 127.205,323.783 127.666,324.002 127.801 C 325.421 128.678,323.491 130.798,322.000 130.000 C 321.113 129.525,320.904 127.772,321.700 127.488 C 321.975 127.390,322.077 127.177,321.926 127.015 C 321.039 126.057,319.300 129.550,319.757 131.372 C 320.287 133.482,323.167 134.390,325.024 133.032 C 326.995 131.590,325.792 126.000,323.509 126.000 C 322.903 126.000,322.846 126.138,323.188 126.778 " stroke="none" fill="#29292c" fill-rule="evenodd"></path><path id="path3" d="M19.557 19.197 C 17.670 21.181,17.504 22.051,17.669 29.111 C 17.766 33.300,17.945 34.897,18.359 35.281 C 18.829 35.718,18.861 35.673,18.563 35.000 C 17.743 33.154,17.902 22.560,18.775 20.849 C 20.158 18.138,23.329 17.064,25.376 18.613 C 25.804 18.936,26.614 19.175,27.176 19.146 L 28.200 19.091 27.211 18.906 C 26.668 18.804,25.862 18.469,25.422 18.161 C 23.752 16.991,21.232 17.436,19.557 19.197 M29.200 18.242 C 28.611 18.603,28.529 18.727,29.000 18.545 C 30.335 18.026,36.052 17.892,36.528 18.368 C 36.766 18.606,37.149 18.794,37.380 18.787 C 37.611 18.780,37.451 18.510,37.024 18.187 C 35.947 17.373,30.556 17.410,29.200 18.242 M44.042 18.034 C 43.515 18.245,43.185 18.518,43.308 18.641 C 43.431 18.764,43.895 18.670,44.339 18.432 C 45.781 17.661,49.401 17.922,51.766 18.968 C 53.789 19.863,53.993 19.885,54.458 19.268 C 54.870 18.722,54.866 18.684,54.439 19.062 C 54.037 19.417,53.439 19.302,51.858 18.566 C 49.663 17.544,45.906 17.288,44.042 18.034 M55.776 18.187 C 55.349 18.510,55.214 18.780,55.476 18.787 C 55.738 18.794,56.064 18.620,56.200 18.400 C 56.336 18.180,57.056 18.000,57.800 18.000 C 58.544 18.000,59.264 18.180,59.400 18.400 C 59.536 18.620,59.862 18.794,60.124 18.787 C 61.211 18.758,58.944 17.600,57.800 17.600 C 57.114 17.600,56.204 17.864,55.776 18.187 M39.211 19.754 L 40.600 20.708 41.700 19.927 C 42.305 19.497,42.800 19.056,42.800 18.946 C 42.800 18.836,42.299 19.103,41.686 19.539 C 40.590 20.319,40.554 20.320,39.586 19.575 C 39.044 19.159,38.425 18.814,38.211 18.809 C 37.997 18.804,38.447 19.229,39.211 19.754 M61.164 19.400 C 61.858 20.757,62.387 21.422,62.394 20.944 C 62.397 20.694,62.030 20.064,61.577 19.544 C 60.931 18.802,60.842 18.771,61.164 19.400 M21.726 20.003 C 19.217 21.014,18.833 33.295,21.236 35.698 C 23.630 38.091,33.900 36.915,33.526 34.290 C 33.407 33.452,33.181 33.393,29.622 33.284 C 24.278 33.120,24.296 33.164,25.441 22.947 C 25.754 20.150,24.274 18.976,21.726 20.003 M30.308 19.863 C 27.136 20.412,25.322 27.555,27.700 30.130 C 28.847 31.371,31.547 32.400,33.659 32.400 L 35.302 32.400 35.109 34.401 L 34.917 36.403 36.359 36.832 C 38.792 37.557,39.928 36.851,40.077 34.522 C 40.208 32.482,41.329 31.569,41.861 33.070 C 42.884 35.958,45.177 36.800,52.023 36.800 C 60.678 36.800,61.201 36.320,61.190 28.400 C 61.180 21.657,60.518 20.000,57.834 20.000 C 55.261 20.000,55.098 20.479,55.438 27.025 C 55.707 32.217,55.684 32.459,54.846 33.351 C 52.607 35.734,46.107 35.472,47.041 33.036 C 47.226 32.556,47.853 32.400,49.598 32.400 C 52.439 32.400,53.338 31.724,53.955 29.123 C 55.356 23.217,53.115 20.000,47.600 20.000 C 42.728 20.000,41.607 21.281,41.602 26.857 C 41.601 28.849,41.450 29.572,41.000 29.745 C 40.505 29.935,40.400 29.524,40.400 27.396 C 40.400 21.363,36.868 18.727,30.308 19.863 M24.947 21.283 C 25.255 21.775,25.238 22.479,24.887 23.789 C 24.619 24.791,24.400 27.207,24.400 29.157 C 24.400 33.663,24.505 33.762,29.335 33.784 C 32.453 33.798,33.006 33.900,33.119 34.484 C 33.535 36.622,23.423 37.312,21.475 35.278 C 20.237 33.986,19.788 22.980,20.900 21.179 C 21.531 20.157,24.285 20.227,24.947 21.283 M37.160 20.980 C 39.035 21.949,39.600 23.237,39.600 26.537 C 39.600 29.791,40.010 30.531,41.500 29.967 C 42.341 29.648,42.400 29.391,42.400 26.029 C 42.400 21.154,43.105 20.400,47.665 20.400 C 52.480 20.400,54.181 22.798,53.422 28.520 C 53.045 31.360,52.374 32.000,49.771 32.000 C 46.289 32.000,45.108 33.462,47.386 34.954 C 48.478 35.669,52.201 35.845,52.600 35.200 C 52.736 34.980,53.169 34.800,53.562 34.800 C 55.641 34.800,56.536 31.858,55.937 26.988 C 55.279 21.629,55.596 20.400,57.638 20.400 C 61.411 20.400,62.386 33.946,58.749 35.827 C 54.709 37.915,42.400 35.861,42.400 33.099 C 42.400 30.834,39.872 32.045,39.600 34.441 L 39.400 36.200 37.522 36.321 L 35.643 36.442 35.522 34.321 C 35.405 32.285,35.352 32.196,34.200 32.096 C 28.574 31.607,26.405 28.963,27.378 23.779 C 27.964 20.654,33.479 19.076,37.160 20.980 M62.600 28.200 C 62.600 31.856,62.717 34.432,62.860 33.924 C 63.003 33.416,63.120 30.840,63.120 28.200 C 63.120 25.560,63.003 22.984,62.860 22.476 C 62.717 21.968,62.600 24.544,62.600 28.200 M33.087 22.351 C 30.635 23.275,30.180 26.720,32.251 28.674 C 34.671 30.957,35.790 30.496,35.837 27.200 C 35.871 24.818,35.860 24.784,35.714 26.800 C 35.470 30.156,33.421 30.461,31.765 27.388 C 30.358 24.773,33.150 21.466,34.922 23.649 C 35.567 24.443,35.670 24.476,35.547 23.848 C 35.352 22.851,33.979 22.015,33.087 22.351 M46.880 22.880 C 46.354 23.406,46.187 29.999,46.700 30.001 C 46.865 30.001,46.942 28.594,46.872 26.873 C 46.719 23.135,47.470 21.858,48.833 23.542 C 50.420 25.501,50.127 28.854,48.306 29.585 C 47.539 29.894,47.515 29.953,48.153 29.975 C 49.600 30.023,50.495 28.417,50.306 26.106 C 50.063 23.122,48.299 21.461,46.880 22.880 M61.415 36.377 C 60.021 38.452,51.170 39.569,46.300 38.283 C 45.035 37.949,44.085 37.814,44.190 37.983 C 45.966 40.857,63.343 38.607,62.343 35.632 C 62.264 35.399,61.847 35.734,61.415 36.377 M18.883 38.977 C 18.726 43.070,20.311 44.644,24.163 44.217 C 25.504 44.068,27.185 43.964,27.900 43.985 C 29.355 44.027,32.922 44.035,34.900 44.000 C 35.615 43.987,37.129 44.088,38.263 44.224 C 40.469 44.489,42.927 43.689,43.358 42.565 C 43.497 42.204,43.134 42.321,42.374 42.882 C 41.415 43.592,40.706 43.755,38.885 43.689 C 36.658 43.607,35.965 43.598,31.400 43.591 C 30.190 43.589,28.525 43.572,27.700 43.554 C 26.875 43.536,25.300 43.645,24.200 43.796 C 20.771 44.268,19.400 42.988,19.400 39.314 C 19.400 35.533,19.025 35.288,18.883 38.977 M36.653 38.446 C 35.197 40.525,36.343 42.400,39.070 42.400 C 40.832 42.400,42.000 41.496,42.000 40.130 C 42.000 38.086,37.826 36.771,36.653 38.446 M21.700 38.265 C 20.636 38.694,21.264 39.106,22.355 38.695 C 24.017 38.067,26.159 38.741,26.332 39.946 C 26.687 42.416,22.182 42.704,21.203 40.274 C 20.926 39.587,20.845 39.550,20.825 40.100 C 20.753 42.105,24.690 43.268,26.138 41.669 C 28.205 39.385,25.005 36.931,21.700 38.265 M28.710 39.037 C 28.330 39.871,28.354 40.283,28.832 41.137 C 30.033 43.288,34.400 42.553,34.400 40.200 C 34.400 37.921,29.660 36.953,28.710 39.037 M32.740 38.839 C 35.308 39.734,33.431 42.357,30.602 41.827 C 29.204 41.564,29.030 41.314,29.195 39.800 C 29.349 38.386,30.525 38.067,32.740 38.839 M40.800 39.200 C 41.823 40.223,41.807 40.610,40.711 41.377 C 38.686 42.796,35.754 41.354,36.777 39.443 C 37.482 38.125,39.598 37.998,40.800 39.200 M43.606 40.124 C 43.602 41.039,43.760 41.548,44.000 41.400 C 44.506 41.088,44.506 39.982,44.000 39.200 C 43.712 38.755,43.611 38.993,43.606 40.124 M47.839 40.242 C 47.667 40.690,47.303 40.812,46.638 40.645 C 45.593 40.383,45.044 41.127,45.467 42.230 C 45.631 42.657,46.004 42.785,46.630 42.628 C 47.136 42.501,47.657 42.569,47.787 42.779 C 47.917 42.989,49.623 43.124,51.578 43.080 C 54.653 43.011,55.196 43.100,55.594 43.738 C 56.029 44.436,56.094 44.439,56.813 43.788 C 57.282 43.363,57.960 43.176,58.589 43.296 C 59.410 43.453,59.520 43.386,59.158 42.950 C 58.813 42.534,58.882 42.346,59.455 42.134 C 59.865 41.982,60.332 41.665,60.494 41.429 C 60.661 41.185,60.790 41.373,60.794 41.867 C 60.797 42.343,60.575 42.824,60.300 42.935 C 60.025 43.046,60.175 43.151,60.633 43.168 C 61.862 43.215,62.037 42.832,61.374 41.549 C 60.617 40.086,58.654 40.208,57.522 41.788 C 57.369 42.002,57.104 42.037,56.933 41.867 C 56.763 41.696,56.883 41.396,57.200 41.200 C 57.517 41.004,57.653 40.719,57.501 40.568 C 57.178 40.244,54.726 41.168,54.322 41.766 C 54.169 41.992,53.904 42.037,53.733 41.867 C 53.563 41.696,53.683 41.396,54.000 41.200 C 55.018 40.571,54.070 40.274,52.767 40.814 C 51.657 41.273,51.462 41.253,51.121 40.645 C 50.804 40.077,50.628 40.045,50.124 40.463 C 49.622 40.879,49.424 40.848,49.013 40.285 C 48.390 39.433,48.153 39.425,47.839 40.242 M48.967 41.043 C 50.068 41.465,49.461 42.800,48.167 42.800 C 48.075 42.800,48.000 42.350,48.000 41.800 C 48.000 40.711,48.034 40.685,48.967 41.043 M53.093 42.236 C 53.675 42.818,53.650 42.861,52.796 42.736 C 52.283 42.661,51.789 42.375,51.698 42.100 C 51.465 41.394,52.336 41.479,53.093 42.236 M56.580 42.123 C 57.002 42.544,57.005 42.778,56.599 43.334 C 56.143 43.958,56.071 43.962,55.847 43.379 C 55.260 41.849,55.645 41.188,56.580 42.123 M272.897 129.987 C 272.620 130.434,272.205 130.800,271.975 130.800 C 270.304 130.800,263.884 135.055,261.800 137.544 C 255.061 145.592,254.494 157.575,260.479 165.467 C 263.601 169.583,272.367 174.255,275.000 173.205 C 275.897 172.847,275.995 172.900,272.400 171.807 C 269.174 170.827,265.656 168.763,263.447 166.553 C 254.582 157.689,257.696 139.699,269.035 134.263 C 270.336 133.639,271.706 132.969,272.079 132.774 C 274.001 131.770,280.760 131.032,283.275 131.551 C 287.259 132.374,291.655 135.653,294.132 139.650 C 294.593 140.392,295.082 141.090,295.219 141.200 C 295.356 141.310,295.673 141.760,295.922 142.200 C 296.366 142.983,296.376 142.981,296.388 142.124 C 296.395 141.642,296.220 141.136,296.000 141.000 C 295.780 140.864,295.600 140.448,295.600 140.076 C 295.600 139.704,294.793 138.373,293.808 137.118 C 291.786 134.543,291.898 134.239,294.656 134.810 C 295.725 135.031,297.650 135.378,298.934 135.580 C 301.783 136.030,304.796 137.222,304.799 137.900 C 304.799 138.175,304.960 138.400,305.156 138.400 C 305.351 138.400,305.486 138.085,305.456 137.700 C 305.420 137.253,305.683 137.000,306.181 137.000 C 307.296 137.000,309.256 140.671,308.417 141.189 C 307.959 141.473,307.930 141.742,308.282 142.474 C 309.220 144.424,309.345 145.159,309.663 150.600 C 309.844 153.680,310.069 156.740,310.163 157.400 C 310.258 158.060,310.366 159.140,310.404 159.800 L 310.472 161.000 310.857 159.600 C 311.069 158.830,311.535 157.570,311.893 156.800 C 313.708 152.899,312.319 145.309,309.359 142.956 C 308.814 142.523,308.569 141.200,309.034 141.200 C 309.162 141.200,310.570 142.550,312.162 144.200 C 313.754 145.850,315.282 147.200,315.557 147.200 C 315.832 147.200,316.327 147.470,316.657 147.800 C 316.987 148.130,317.706 148.400,318.255 148.400 C 321.394 148.400,323.005 152.551,321.315 156.286 C 319.359 160.612,312.014 167.207,307.600 168.600 C 306.001 169.104,304.804 170.033,304.169 171.259 C 303.845 171.887,303.271 172.400,302.894 172.400 C 302.354 172.400,302.441 172.616,303.304 173.416 C 304.538 174.560,304.735 176.177,303.854 177.920 C 303.554 178.514,303.183 180.436,303.029 182.192 C 302.876 183.947,302.536 185.536,302.275 185.722 C 301.911 185.982,301.916 186.108,302.295 186.262 C 302.568 186.373,303.131 187.233,303.547 188.173 C 306.520 194.895,310.485 194.656,314.184 187.533 L 314.946 186.066 319.019 186.077 C 323.331 186.088,325.600 185.775,325.600 185.168 C 325.600 184.966,326.171 184.800,326.869 184.800 C 327.566 184.800,328.421 184.553,328.769 184.252 C 329.116 183.951,329.929 183.535,330.575 183.327 C 331.221 183.120,331.826 182.723,331.918 182.446 C 332.204 181.589,319.866 182.549,318.757 183.470 C 316.544 185.306,315.172 183.679,316.609 180.924 C 316.931 180.306,317.196 179.496,317.198 179.124 C 317.199 178.752,317.380 178.336,317.600 178.200 C 317.820 178.064,318.000 177.548,318.000 177.053 C 318.000 176.558,318.264 175.804,318.587 175.376 C 318.910 174.949,319.180 174.307,319.187 173.949 C 319.194 173.591,319.470 173.074,319.800 172.800 C 320.130 172.526,320.400 171.895,320.400 171.398 C 320.400 170.531,320.564 170.486,324.300 170.330 C 326.943 170.220,328.522 169.962,329.200 169.531 C 329.750 169.181,330.740 168.760,331.400 168.596 L 332.600 168.296 331.400 167.952 C 330.740 167.763,328.355 167.636,326.099 167.670 C 321.683 167.737,321.152 167.591,322.152 166.590 C 322.518 166.225,322.800 165.293,322.800 164.451 C 322.800 163.631,323.003 162.757,323.251 162.509 C 323.500 162.260,323.794 160.780,323.906 159.219 C 324.018 157.657,324.264 156.284,324.454 156.166 C 324.645 156.049,324.800 155.508,324.800 154.964 C 324.800 154.371,325.080 153.888,325.500 153.759 C 326.787 153.361,327.325 152.965,328.308 151.689 L 329.286 150.422 328.279 149.963 C 327.465 149.592,327.094 149.629,326.347 150.152 C 325.021 151.081,323.600 151.002,323.600 150.000 C 323.600 149.283,323.867 149.200,326.176 149.200 C 327.593 149.200,328.864 149.020,329.000 148.800 C 329.136 148.580,329.765 148.400,330.397 148.400 C 331.066 148.400,332.521 147.751,333.874 146.850 L 336.200 145.299 336.324 148.950 C 336.393 150.957,336.268 153.590,336.047 154.800 C 335.827 156.010,335.525 159.340,335.376 162.200 C 335.227 165.060,335.019 167.546,334.914 167.725 C 334.808 167.904,334.642 170.784,334.544 174.125 C 334.341 181.054,334.314 181.200,333.213 181.200 C 332.766 181.200,332.400 181.380,332.400 181.600 C 332.400 181.820,332.741 182.000,333.157 182.000 C 334.268 182.000,334.314 182.408,333.977 189.200 C 333.591 196.967,333.515 197.266,331.676 198.166 C 330.864 198.564,329.887 199.049,329.505 199.244 C 329.123 199.440,328.313 199.606,327.705 199.613 C 327.097 199.620,326.251 199.890,325.824 200.213 C 325.396 200.536,324.631 200.800,324.124 200.800 C 323.616 200.800,323.200 200.964,323.200 201.165 C 323.200 201.366,322.481 201.651,321.602 201.800 C 320.723 201.948,319.903 202.234,319.778 202.435 C 319.654 202.636,319.225 202.800,318.825 202.800 C 318.425 202.800,317.883 203.058,317.621 203.374 C 317.359 203.690,316.605 204.067,315.945 204.212 C 315.286 204.357,314.263 204.727,313.673 205.035 C 313.083 205.343,312.240 205.599,311.800 205.604 C 311.360 205.608,310.280 205.871,309.400 206.188 C 308.520 206.505,306.970 206.773,305.956 206.782 C 302.810 206.812,300.460 207.268,300.219 207.894 C 300.032 208.381,300.292 208.439,301.696 208.227 C 302.633 208.085,304.750 207.812,306.400 207.621 C 308.050 207.429,311.020 206.993,313.000 206.650 C 314.980 206.308,317.241 206.022,318.024 206.014 C 318.806 206.006,319.796 205.736,320.224 205.413 C 320.651 205.090,321.461 204.820,322.024 204.813 C 322.586 204.806,323.396 204.536,323.824 204.213 C 324.251 203.890,324.844 203.620,325.142 203.613 C 325.440 203.606,326.430 203.096,327.342 202.481 C 328.254 201.866,329.270 201.234,329.600 201.077 C 329.930 200.920,330.740 200.446,331.400 200.025 C 332.958 199.030,333.200 199.030,333.200 200.026 C 333.200 202.245,335.338 203.088,338.202 201.999 C 338.782 201.779,340.638 201.420,342.328 201.201 C 344.018 200.982,346.570 200.610,348.000 200.374 C 362.605 197.965,374.004 205.444,373.036 216.800 C 372.098 227.804,367.540 232.183,356.500 232.686 C 352.583 232.865,352.322 232.732,353.357 231.086 C 356.065 226.779,357.913 213.353,356.054 211.494 C 355.804 211.244,355.597 210.581,355.594 210.020 C 355.591 209.459,355.436 208.760,355.250 208.466 C 354.638 207.501,354.393 209.056,354.811 211.258 C 356.008 217.568,354.913 224.423,351.978 229.000 C 351.555 229.660,351.086 230.456,350.935 230.769 C 349.953 232.812,350.019 232.802,337.500 232.768 C 331.065 232.751,326.070 232.636,326.400 232.512 C 327.574 232.072,332.806 226.573,333.548 225.000 C 334.971 221.982,336.908 215.658,336.630 214.935 C 336.288 214.042,335.616 214.905,335.606 216.251 C 335.603 216.719,335.330 217.326,335.000 217.600 C 334.670 217.874,334.400 218.337,334.400 218.629 C 334.400 219.249,332.301 222.452,331.411 223.191 C 331.075 223.470,330.800 223.940,330.800 224.235 C 330.800 224.531,330.263 225.364,329.607 226.086 C 328.951 226.809,328.176 227.670,327.885 228.000 C 327.595 228.330,326.326 229.526,325.066 230.658 L 322.774 232.716 316.287 232.989 C 312.719 233.139,307.100 233.203,303.800 233.131 L 297.800 233.000 297.506 229.800 C 296.936 223.596,296.693 198.373,297.145 192.200 C 298.071 179.540,297.941 177.312,296.349 178.522 C 294.928 179.602,293.905 204.714,294.806 216.400 C 295.001 218.930,295.355 223.477,295.592 226.505 C 295.830 229.533,296.244 232.683,296.513 233.505 L 297.001 235.000 306.201 235.284 C 311.260 235.441,320.170 235.759,326.000 235.992 C 342.760 236.662,357.589 236.426,364.227 235.384 C 376.520 233.454,378.681 211.066,367.539 201.072 L 365.127 198.908 359.264 198.649 C 354.026 198.417,345.695 198.751,339.043 199.458 L 336.685 199.709 336.925 185.554 C 337.180 170.523,337.720 158.654,338.389 153.400 C 339.844 141.968,339.897 140.997,339.007 142.269 C 338.464 143.044,337.049 143.947,332.000 146.741 C 328.854 148.482,320.387 148.294,316.606 146.400 C 313.379 144.782,309.844 141.433,308.494 138.713 C 307.995 137.709,307.320 136.666,306.994 136.395 C 306.667 136.124,306.400 135.541,306.400 135.100 C 306.400 134.391,306.218 134.327,304.829 134.549 C 303.805 134.713,303.073 134.626,302.729 134.300 C 302.438 134.025,301.480 133.749,300.600 133.687 C 299.720 133.625,298.100 133.326,297.000 133.022 C 295.900 132.719,293.020 131.921,290.600 131.249 C 284.233 129.482,281.257 129.082,278.376 129.604 C 277.061 129.843,275.821 129.936,275.620 129.812 C 275.419 129.688,275.142 129.770,275.004 129.993 C 274.622 130.612,273.675 130.479,273.529 129.787 C 273.426 129.298,273.298 129.338,272.897 129.987 M296.957 157.890 C 296.803 158.709,296.435 159.622,296.139 159.919 C 295.842 160.215,295.600 160.714,295.600 161.029 C 295.600 161.343,295.432 161.600,295.227 161.600 C 295.022 161.600,294.728 162.005,294.574 162.500 C 293.937 164.544,289.887 168.845,286.900 170.649 C 285.965 171.214,285.200 171.828,285.200 172.014 C 285.200 172.200,284.525 172.415,283.700 172.492 C 282.605 172.594,282.381 172.717,282.872 172.948 C 284.772 173.842,292.071 169.353,294.070 166.061 C 294.558 165.257,295.077 164.510,295.223 164.400 C 295.794 163.970,296.800 161.589,296.800 160.669 C 296.800 160.135,297.070 159.474,297.400 159.200 C 298.057 158.655,298.232 156.400,297.618 156.400 C 297.408 156.400,297.110 157.070,296.957 157.890 M322.400 161.624 C 322.400 162.271,322.220 162.800,322.000 162.800 C 321.780 162.800,321.597 163.475,321.593 164.300 C 321.584 166.186,320.614 167.138,317.400 168.410 C 316.080 168.932,314.829 169.504,314.620 169.680 C 314.170 170.059,311.843 170.110,311.481 169.748 C 311.343 169.610,312.321 168.763,313.655 167.867 C 314.989 166.972,317.345 164.838,318.891 163.127 C 321.809 159.894,322.400 159.641,322.400 161.624 M309.212 162.620 C 309.223 163.654,309.277 163.709,309.654 163.061 C 309.961 162.532,309.958 162.198,309.641 161.881 C 309.320 161.560,309.203 161.759,309.212 162.620 M308.212 164.117 C 308.041 164.512,308.013 164.947,308.151 165.084 C 308.557 165.490,308.884 164.920,308.697 164.131 C 308.532 163.433,308.510 163.432,308.212 164.117 M337.052 210.900 C 336.683 212.279,336.755 213.600,337.200 213.600 C 337.420 213.600,337.600 212.790,337.600 211.800 C 337.600 209.818,337.421 209.524,337.052 210.900 " stroke="none" fill="#d6430e" fill-rule="evenodd"></path><path id="path4" d="M277.446 82.986 C 276.633 84.226,276.634 84.753,277.449 85.654 C 278.374 86.677,277.957 87.292,275.742 88.169 C 267.453 91.449,264.931 98.268,271.362 100.011 C 272.571 100.339,272.559 101.073,271.327 102.076 C 263.280 108.628,262.543 115.500,269.763 116.671 C 271.577 116.966,271.563 117.154,269.529 119.848 C 266.640 123.674,267.379 127.564,271.000 127.591 L 272.200 127.600 272.211 122.700 C 272.236 111.411,281.761 102.248,291.781 103.874 C 293.638 104.176,293.559 102.499,291.511 98.138 C 290.383 95.738,297.653 91.989,303.385 92.014 C 307.966 92.034,308.348 92.329,309.410 96.651 C 310.429 100.803,310.357 101.200,308.583 101.200 C 305.421 101.200,299.447 102.973,297.422 104.512 C 296.679 105.077,296.725 105.145,298.422 106.010 C 302.958 108.320,306.666 113.190,307.780 118.300 C 308.157 120.028,308.499 119.946,310.199 117.720 C 314.682 111.848,323.395 108.672,329.559 110.662 C 331.803 111.387,332.480 111.191,331.489 110.102 C 330.561 109.082,324.515 106.290,321.300 105.396 C 319.956 105.023,320.186 104.036,322.400 100.677 C 323.500 99.009,324.400 97.474,324.400 97.265 C 324.400 95.442,332.364 97.290,336.000 99.957 C 341.781 104.197,342.313 106.259,338.585 109.983 C 335.473 113.092,335.493 112.549,338.377 115.609 C 343.417 120.955,345.345 129.007,342.960 134.749 C 342.652 135.491,342.400 136.161,342.400 136.239 C 342.400 136.561,344.707 137.512,346.100 137.765 C 347.803 138.073,347.858 138.232,346.926 140.186 C 346.146 141.821,345.762 141.890,343.506 140.800 C 340.152 139.180,339.899 139.511,339.225 146.400 C 338.956 149.150,338.578 152.300,338.385 153.400 C 338.193 154.500,337.982 157.650,337.918 160.400 L 337.800 165.400 340.632 165.400 C 344.241 165.400,345.927 164.291,347.046 161.181 C 347.776 159.150,347.793 159.136,349.191 159.392 C 360.471 161.463,368.786 157.673,370.813 149.535 C 371.238 147.830,371.191 147.499,370.271 145.666 C 369.143 143.420,369.285 143.200,371.863 143.200 C 374.654 143.200,376.172 140.639,375.115 137.716 C 374.701 136.571,374.733 136.215,375.334 135.287 C 377.785 131.501,378.710 124.462,377.237 120.800 C 375.967 117.642,375.056 115.766,374.077 114.285 L 373.042 112.722 374.021 111.970 C 374.560 111.556,375.128 111.214,375.284 111.209 C 375.440 111.204,375.781 110.489,376.041 109.620 C 377.087 106.131,374.516 102.007,369.450 99.045 C 366.880 97.542,366.194 96.800,367.371 96.800 C 370.894 96.800,368.655 90.647,364.826 89.806 C 363.341 89.480,363.022 89.013,363.135 87.334 C 363.199 86.386,362.906 85.684,362.044 84.719 L 360.866 83.400 346.040 83.286 C 329.280 83.157,330.685 82.928,325.800 86.582 C 322.157 89.308,321.673 89.472,321.375 88.086 C 321.040 86.527,319.893 83.851,319.411 83.506 C 319.185 83.344,311.170 83.202,301.600 83.189 C 287.502 83.169,283.896 83.056,282.600 82.588 C 280.070 81.677,278.210 81.820,277.446 82.986 M287.000 106.094 C 277.306 108.473,271.776 117.357,274.199 126.659 C 274.979 129.656,275.144 129.787,277.469 129.263 C 279.303 128.851,279.320 128.836,277.797 128.963 C 272.668 129.394,273.511 116.750,278.968 111.400 C 280.772 109.632,282.965 108.000,283.538 108.000 C 283.742 108.000,284.424 107.731,285.054 107.402 C 286.676 106.557,293.186 106.583,295.140 107.443 C 298.640 108.985,299.463 109.498,301.108 111.162 C 305.797 115.907,307.239 124.735,304.134 129.692 C 303.621 130.513,303.200 131.340,303.200 131.530 C 303.200 132.046,301.911 133.090,301.000 133.312 C 300.459 133.444,300.605 133.522,301.451 133.554 C 302.139 133.579,302.887 133.375,303.113 133.100 C 312.641 121.493,301.353 102.572,287.000 106.094 M320.228 112.829 C 313.871 114.917,310.216 118.900,308.352 125.773 C 307.325 129.559,307.691 132.555,309.761 137.309 C 310.608 139.253,314.042 142.742,316.600 144.257 C 331.305 152.967,348.543 135.483,339.860 120.665 C 335.862 113.844,327.411 110.470,320.228 112.829 M328.294 113.259 C 332.714 114.324,338.800 118.611,338.800 120.660 C 338.800 120.920,338.935 121.193,339.100 121.267 C 340.950 122.089,341.910 133.311,340.283 135.108 C 339.907 135.523,339.600 136.095,339.600 136.378 C 339.600 137.947,333.560 144.000,331.995 144.000 C 331.702 144.000,331.127 144.304,330.717 144.675 C 329.498 145.778,321.206 145.688,318.800 144.545 C 315.052 142.765,310.442 138.503,310.411 136.789 C 310.405 136.453,310.089 135.734,309.709 135.191 C 308.913 134.055,308.698 124.173,309.458 123.669 C 309.682 123.521,310.300 122.517,310.832 121.438 C 311.792 119.491,314.448 116.386,315.600 115.862 C 315.930 115.712,316.993 115.142,317.963 114.595 C 318.933 114.048,320.193 113.587,320.763 113.572 C 321.333 113.556,322.160 113.389,322.600 113.200 C 323.752 112.705,326.096 112.729,328.294 113.259 M296.170 121.700 C 293.083 125.309,294.200 129.207,298.316 129.194 C 301.887 129.182,303.648 125.457,301.700 122.035 C 300.772 120.405,297.450 120.204,296.170 121.700 M301.108 122.400 C 302.541 125.125,300.967 128.800,298.367 128.800 C 295.783 128.800,294.620 126.582,295.653 123.621 C 296.140 122.224,296.782 122.591,296.794 124.273 C 296.803 125.568,298.360 125.937,299.238 124.852 C 300.197 123.668,299.773 122.415,298.316 122.123 C 297.465 121.953,297.284 121.790,297.668 121.539 C 298.681 120.877,300.553 121.345,301.108 122.400 M321.077 126.148 C 318.028 128.642,318.036 132.049,321.094 134.065 C 324.888 136.567,328.726 130.401,325.780 126.538 C 324.531 124.901,322.778 124.756,321.077 126.148 M325.024 126.568 C 325.658 127.031,325.800 127.624,325.800 129.800 C 325.800 134.242,320.804 135.542,319.757 131.372 C 319.300 129.550,321.039 126.057,321.926 127.015 C 322.077 127.177,321.975 127.390,321.700 127.488 C 320.904 127.772,321.113 129.525,322.000 130.000 C 323.491 130.798,325.421 128.678,324.002 127.801 C 323.783 127.666,323.417 127.205,323.188 126.778 C 322.670 125.810,323.809 125.679,325.024 126.568 M282.433 128.947 C 282.525 129.028,283.320 129.214,284.200 129.362 C 285.346 129.554,285.630 129.514,285.200 129.221 C 284.660 128.853,282.032 128.593,282.433 128.947 M277.100 132.289 C 277.815 132.378,278.985 132.378,279.700 132.289 C 280.415 132.201,279.830 132.128,278.400 132.128 C 276.970 132.128,276.385 132.201,277.100 132.289 M272.600 133.014 C 271.940 133.317,271.670 133.566,272.000 133.568 C 272.330 133.570,273.050 133.314,273.600 133.000 C 274.865 132.277,274.189 132.287,272.600 133.014 M305.282 133.124 C 304.305 133.876,304.463 134.400,305.667 134.400 C 306.182 134.400,306.400 134.103,306.400 133.400 C 306.400 132.219,306.445 132.230,305.282 133.124 M265.878 136.613 C 265.260 137.156,264.914 137.600,265.108 137.600 C 265.302 137.600,265.883 137.150,266.400 136.600 C 267.595 135.328,267.331 135.334,265.878 136.613 M259.701 146.056 C 259.433 146.766,259.296 147.429,259.396 147.529 C 259.634 147.768,260.461 145.584,260.307 145.122 C 260.242 144.926,259.969 145.346,259.701 146.056 M258.914 150.600 C 258.917 151.700,258.995 152.103,259.087 151.495 C 259.179 150.886,259.177 149.986,259.082 149.495 C 258.987 149.003,258.911 149.500,258.914 150.600 M258.909 156.000 C 258.909 156.990,258.987 157.395,259.082 156.900 C 259.178 156.405,259.178 155.595,259.082 155.100 C 258.987 154.605,258.909 155.010,258.909 156.000 M317.568 164.829 C 315.900 166.549,314.820 167.803,315.168 167.617 C 315.515 167.430,316.918 166.113,318.284 164.690 C 319.651 163.267,320.866 162.199,320.984 162.318 C 321.103 162.436,321.200 162.323,321.200 162.067 C 321.200 161.234,320.649 161.653,317.568 164.829 M294.896 165.300 C 287.795 174.481,275.659 176.647,266.307 170.402 C 263.259 168.366,262.813 168.391,260.834 170.700 C 258.469 173.459,259.135 175.600,262.357 175.600 C 263.250 175.600,264.400 177.002,264.400 178.089 C 264.400 179.976,265.801 180.501,270.029 180.198 L 273.978 179.915 276.428 181.758 C 280.013 184.452,283.252 184.210,286.728 180.987 C 287.711 180.075,288.777 179.751,294.014 178.769 C 295.216 178.544,296.699 178.258,297.309 178.133 L 298.418 177.907 298.222 180.253 C 298.049 182.324,298.068 182.412,298.390 181.000 C 298.590 180.120,298.764 178.750,298.777 177.955 C 298.792 176.991,299.197 175.992,299.993 174.955 C 301.581 172.885,301.603 172.863,303.100 171.979 C 305.920 170.314,304.107 166.410,299.896 165.083 C 296.966 164.159,295.737 164.213,294.896 165.300 M263.600 166.200 C 264.346 166.970,265.047 167.600,265.157 167.600 C 265.267 167.600,264.746 166.970,264.000 166.200 C 263.254 165.430,262.553 164.800,262.443 164.800 C 262.333 164.800,262.854 165.430,263.600 166.200 M319.478 166.613 C 318.860 167.156,318.514 167.600,318.708 167.600 C 318.902 167.600,319.483 167.150,320.000 166.600 C 321.195 165.328,320.931 165.334,319.478 166.613 M313.239 168.553 C 312.649 169.264,313.449 169.628,314.600 169.173 C 315.349 168.876,315.342 168.854,314.476 168.828 C 313.968 168.813,313.664 168.620,313.800 168.400 C 314.167 167.807,313.768 167.915,313.239 168.553 M297.744 191.200 C 297.744 193.290,297.812 194.145,297.894 193.100 C 297.976 192.055,297.976 190.345,297.894 189.300 C 297.812 188.255,297.744 189.110,297.744 191.200 M297.348 199.600 C 297.348 201.910,297.414 202.855,297.495 201.700 C 297.576 200.545,297.576 198.655,297.495 197.500 C 297.414 196.345,297.348 197.290,297.348 199.600 M362.146 201.802 C 362.776 202.131,363.496 202.399,363.746 202.398 C 363.996 202.396,363.684 202.126,363.054 201.798 C 362.424 201.469,361.704 201.201,361.454 201.202 C 361.204 201.204,361.516 201.474,362.146 201.802 M368.000 205.027 C 368.000 205.151,368.652 205.916,369.448 206.727 L 370.897 208.200 369.581 206.500 C 368.298 204.841,368.000 204.564,368.000 205.027 M370.800 208.647 C 370.800 208.867,371.064 209.396,371.387 209.824 C 371.710 210.251,371.975 210.420,371.975 210.200 C 371.975 209.980,371.710 209.451,371.387 209.024 C 371.064 208.596,370.800 208.427,370.800 208.647 M374.834 213.600 C 374.846 213.930,375.011 214.560,375.200 215.000 L 375.544 215.800 375.566 215.000 C 375.578 214.560,375.413 213.930,375.200 213.600 C 374.855 213.067,374.815 213.067,374.834 213.600 M297.346 217.400 C 297.347 219.600,297.414 220.449,297.495 219.287 C 297.576 218.124,297.576 216.324,297.493 215.287 C 297.411 214.249,297.345 215.200,297.346 217.400 M294.423 220.433 C 294.436 221.845,294.598 223.720,294.785 224.600 C 295.010 225.665,295.051 224.863,294.906 222.200 C 294.658 217.622,294.389 216.637,294.423 220.433 M375.249 220.800 C 375.216 221.130,375.089 221.850,374.967 222.400 C 374.775 223.264,374.807 223.303,375.199 222.688 C 375.448 222.297,375.575 221.577,375.481 221.088 C 375.386 220.600,375.282 220.470,375.249 220.800 M297.742 225.000 C 297.741 226.980,297.808 227.840,297.892 226.912 C 297.976 225.984,297.977 224.364,297.895 223.312 C 297.812 222.260,297.743 223.020,297.742 225.000 M295.320 229.200 C 295.320 230.410,295.395 230.905,295.487 230.300 C 295.578 229.695,295.578 228.705,295.487 228.100 C 295.395 227.495,295.320 227.990,295.320 229.200 M370.825 231.769 L 369.450 233.400 371.005 231.913 C 371.860 231.096,372.479 230.362,372.380 230.283 C 372.281 230.203,371.581 230.872,370.825 231.769 M295.634 232.881 C 295.588 233.799,296.435 235.600,296.913 235.600 C 297.125 235.600,297.083 235.342,296.821 235.026 C 296.559 234.710,296.192 233.945,296.007 233.326 C 295.821 232.707,295.653 232.507,295.634 232.881 M305.700 235.894 C 306.745 235.976,308.455 235.976,309.500 235.894 C 310.545 235.812,309.690 235.744,307.600 235.744 C 305.510 235.744,304.655 235.812,305.700 235.894 M317.100 236.293 C 318.035 236.377,319.565 236.377,320.500 236.293 C 321.435 236.209,320.670 236.140,318.800 236.140 C 316.930 236.140,316.165 236.209,317.100 236.293 M361.100 236.282 C 361.595 236.378,362.405 236.378,362.900 236.282 C 363.395 236.187,362.990 236.109,362.000 236.109 C 361.010 236.109,360.605 236.187,361.100 236.282 M325.682 236.696 C 327.158 236.773,329.678 236.773,331.282 236.697 C 332.887 236.621,331.680 236.558,328.600 236.558 C 325.520 236.557,324.207 236.619,325.682 236.696 M354.500 236.694 C 355.545 236.776,357.255 236.776,358.300 236.694 C 359.345 236.612,358.490 236.544,356.400 236.544 C 354.310 236.544,353.455 236.612,354.500 236.694 " stroke="none" fill="#a2c5dc" fill-rule="evenodd"></path></g></svg>