<svg width="18" height="13" viewBox="0 0 18 13" fill="none" xmlns="http://www.w3.org/2000/svg">
<path fill-rule="evenodd" clip-rule="evenodd" d="M10.165 6.45725L10.1634 6.0995C10.1513 4.68055 10.0666 3.41455 9.92061 2.61225C9.92061 2.59778 9.76134 1.80207 9.65988 1.53721C9.50061 1.15438 9.21262 0.829415 8.85153 0.623532C8.56244 0.476632 8.25917 0.402069 7.94172 0.402069C7.69218 0.413754 7.28064 0.540623 6.98692 0.64699L6.74283 0.741497C5.12612 1.39031 2.03561 3.51034 0.85199 4.80685L0.764728 4.89747L0.375268 5.32211C0.129817 5.64707 0 6.04437 0 6.47172C0 6.85455 0.115635 7.23738 0.346905 7.54676C0.41614 7.64699 0.527664 7.77558 0.626929 7.88423L1.006 8.28512C2.31046 9.62042 5.13485 11.4934 6.59883 12.114C6.59883 12.1274 7.50864 12.5113 7.94172 12.5258H7.99954C8.66389 12.5258 9.28461 12.143 9.60207 11.5242C9.68879 11.355 9.77197 11.0237 9.83524 10.7327L9.94897 10.1832C10.0788 9.29954 10.165 7.94406 10.165 6.45725ZM16.4967 7.99792C17.3269 7.99792 18 7.31127 18 6.46437C18 5.61747 17.3269 4.93082 16.4967 4.93082L12.7975 5.26135C12.1463 5.26135 11.6183 5.79887 11.6183 6.46437C11.6183 7.12876 12.1463 7.66739 12.7975 7.66739L16.4967 7.99792Z" fill="#616161"/>
</svg>
